name Walk1.mot
datacolumns 19
datarows 30
range 1.31000000 1.33900000
endheader

                time	   L_ground_force_vx	   L_ground_force_vy	   L_ground_force_vz	   L_ground_force_px	   L_ground_force_py	   L_ground_force_pz	   R_ground_force_vx	   R_ground_force_vy	   R_ground_force_vz	   R_ground_force_px	   R_ground_force_py	   R_ground_force_pz	   L_ground_torque_x	   L_ground_torque_y	   L_ground_torque_z	   R_ground_torque_x	   R_ground_torque_y	   R_ground_torque_z	
          1.31000000	         34.87772249	        520.44739761	         36.48416342	         -0.08944916	          0.00000000	         -0.09948461	         -0.03654515	          0.56080475	          0.03772580	          0.00066476	          0.00000000	          0.00005429	          0.00000000	          0.39384299	          0.00000000	          0.00000000	          0.00210166	          0.00000000	
          1.31100000	         35.68482114	        522.44515518	         36.76588043	         -0.08940541	          0.00000000	         -0.09951372	         -0.03881032	          0.57210723	          0.03811929	          0.00066567	          0.00000000	          0.00005221	          0.00000000	          0.39513281	          0.00000000	          0.00000000	          0.00243781	          0.00000000	
          1.31200000	         36.49662519	        524.43809736	         37.04719314	         -0.08936011	          0.00000000	         -0.09954118	         -0.04112570	          0.58209724	          0.03839192	          0.00066393	          0.00000000	          0.00004972	          0.00000000	          0.39637946	          0.00000000	          0.00000000	          0.00279512	          0.00000000	
          1.31300000	         37.31301887	        526.42565745	         37.32784259	         -0.08931321	          0.00000000	         -0.09956690	         -0.04348638	          0.59061156	          0.03853132	          0.00065928	          0.00000000	          0.00004679	          0.00000000	          0.39757581	          0.00000000	          0.00000000	          0.00317410	          0.00000000	
          1.31400000	         38.13388719	        528.40726338	         37.60756345	         -0.08926467	          0.00000000	         -0.09959081	         -0.04588684	          0.59747791	          0.03852456	          0.00065148	          0.00000000	          0.00004340	          0.00000000	          0.39871326	          0.00000000	          0.00000000	          0.00357518	          0.00000000	
          1.31500000	         38.95911623	        530.38233824	         37.88608341	         -0.08921445	          0.00000000	         -0.09961283	         -0.04832085	          0.60251478	          0.03835806	          0.00064026	          0.00000000	          0.00003951	          0.00000000	          0.39978221	          0.00000000	          0.00000000	          0.00399877	          0.00000000	
          1.31600000	         39.78859277	        532.35030043	         38.16312377	         -0.08916251	          0.00000000	         -0.09963291	         -0.05078149	          0.60553137	          0.03801767	          0.00062535	          0.00000000	          0.00003510	          0.00000000	          0.40077266	          0.00000000	          0.00000000	          0.00444521	          0.00000000	
          1.31700000	         40.62220362	        534.31056362	         38.43840117	         -0.08910882	          0.00000000	         -0.09965097	         -0.05326105	          0.60632749	          0.03748864	          0.00060648	          0.00000000	          0.00003013	          0.00000000	          0.40167473	          0.00000000	          0.00000000	          0.00491477	          0.00000000	
          1.31800000	         41.45983541	        536.26253675	         38.71162974	         -0.08905335	          0.00000000	         -0.09966696	         -0.05575107	          0.60469351	          0.03675563	          0.00058334	          0.00000000	          0.00002458	          0.00000000	          0.40247894	          0.00000000	          0.00000000	          0.00540768	          0.00000000	
          1.31900000	         42.30137496	        538.20562420	         38.98252308	         -0.08899609	          0.00000000	         -0.09968082	         -0.05824222	          0.60041036	          0.03580270	          0.00055565	          0.00000000	          0.00001841	          0.00000000	          0.40317613	          0.00000000	          0.00000000	          0.00592405	          0.00000000	
          1.32000000	         43.14671016	        540.13922603	         39.25079559	         -0.08893700	          0.00000000	         -0.09969249	         -0.06072433	          0.59324956	          0.03461336	          0.00052309	          0.00000000	          0.00001159	          0.00000000	          0.40375741	          0.00000000	          0.00000000	          0.00646393	          0.00000000	
          1.32100000	         43.99573113	        542.06273861	         39.51616324	         -0.08887606	          0.00000000	         -0.09970193	         -0.06318630	          0.58297328	          0.03317056	          0.00048535	          0.00000000	          0.00000409	          0.00000000	          0.40421398	          0.00000000	          0.00000000	          0.00702730	          0.00000000	
          1.32200000	         44.84833120	        543.97555535	         39.77834358	         -0.08881327	          0.00000000	         -0.09970909	         -0.06561610	          0.56933445	          0.03145669	          0.00044209	          0.00000000	         -0.00000412	          0.00000000	          0.40453719	          0.00000000	          0.00000000	          0.00761399	          0.00000000	
          1.32300000	         45.70440726	        545.87706787	         40.03705540	         -0.08874860	          0.00000000	         -0.09971394	         -0.06800069	          0.55207692	          0.02945364	          0.00039299	          0.00000000	         -0.00001308	          0.00000000	          0.40471897	          0.00000000	          0.00000000	          0.00822375	          0.00000000	
          1.32400000	         46.56385921	        547.76666743	         40.29201818	         -0.08868203	          0.00000000	         -0.09971646	         -0.07032604	          0.53093571	          0.02714282	          0.00033770	          0.00000000	         -0.00002282	          0.00000000	          0.40475245	          0.00000000	          0.00000000	          0.00885621	          0.00000000	
          1.32500000	         47.42658849	        549.64374626	         40.54295226	         -0.08861355	          0.00000000	         -0.09971663	         -0.07257704	          0.50563724	          0.02450517	          0.00027588	          0.00000000	         -0.00003337	          0.00000000	          0.40463265	          0.00000000	          0.00000000	          0.00951087	          0.00000000	
          1.32600000	         48.29249629	        551.50769902	         40.78957974	         -0.08854314	          0.00000000	         -0.09971444	         -0.07473747	          0.47589967	          0.02152121	          0.00020717	          0.00000000	         -0.00004476	          0.00000000	          0.40435682	          0.00000000	          0.00000000	          0.01018708	          0.00000000	
          1.32700000	         49.16148213	        553.35792401	         41.03162613	         -0.08847080	          0.00000000	         -0.09970988	         -0.07679000	          0.44143332	          0.01817109	          0.00013123	          0.00000000	         -0.00005703	          0.00000000	          0.40392423	          0.00000000	          0.00000000	          0.01088406	          0.00000000	
          1.32800000	         50.03344306	        555.19382414	         41.26882197	         -0.08839651	          0.00000000	         -0.09970296	         -0.07871612	          0.40194110	          0.01443461	          0.00004768	          0.00000000	         -0.00007020	          0.00000000	          0.40333552	          0.00000000	          0.00000000	          0.01160086	          0.00000000	
          1.32900000	         50.90827398	        557.01480744	         41.50090370	         -0.08832029	          0.00000000	         -0.09969366	         -0.08049614	          0.35711908	          0.01029130	         -0.00004382	          0.00000000	         -0.00008430	          0.00000000	          0.40259180	          0.00000000	          0.00000000	          0.01233635	          0.00000000	
          1.33000000	         51.78586842	        558.82028717	         41.72761330	         -0.08824215	          0.00000000	         -0.09968197	         -0.08210913	          0.30665710	          0.00572048	         -0.00014365	          0.00000000	         -0.00009937	          0.00000000	          0.40169384	          0.00000000	          0.00000000	          0.01308924	          0.00000000	
          1.33100000	         52.66611970	        560.60968145	         41.94869696	         -0.08816208	          0.00000000	         -0.09966788	         -0.08353290	          0.25023947	          0.00070129	         -0.00025216	          0.00000000	         -0.00011543	          0.00000000	          0.40064158	          0.00000000	          0.00000000	          0.01385804	          0.00000000	
          1.33200000	         53.54892188	        562.38241275	         42.16390332	         -0.08808011	          0.00000000	         -0.09965138	         -0.08474399	          0.18754577	         -0.00478721	         -0.00036971	          0.00000000	         -0.00013250	          0.00000000	          0.39943411	          0.00000000	          0.00000000	          0.01464104	          0.00000000	
          1.33300000	         54.43417005	        564.13790705	         42.37298179	         -0.08799623	          0.00000000	         -0.09963244	         -0.08571763	          0.11825171	         -0.01076596	         -0.00049666	          0.00000000	         -0.00015061	          0.00000000	          0.39806985	          0.00000000	          0.00000000	          0.01543634	          0.00000000	
          1.33400000	         55.32175946	        565.87559293	         42.57568173	         -0.08791046	          0.00000000	         -0.09961105	         -0.08642775	          0.04203013	         -0.01725582	         -0.00063335	          0.00000000	         -0.00016978	          0.00000000	          0.39654712	          0.00000000	          0.00000000	          0.01624179	          0.00000000	
          1.33500000	         56.21158383	        567.59490078	         42.77175276	         -0.08782280	          0.00000000	         -0.09958720	         -0.08684691	         -0.04144793	         -0.02427748	         -0.00078013	          0.00000000	         -0.00019003	          0.00000000	          0.39486471	          0.00000000	          0.00000000	          0.01705501	          0.00000000	
          1.33600000	         57.10353315	        569.29526206	         42.96094615	         -0.08773325	          0.00000000	         -0.09956086	         -0.08694636	         -0.13251202	         -0.03185137	         -0.00093733	          0.00000000	         -0.00021138	          0.00000000	          0.39302234	          0.00000000	          0.00000000	          0.01787337	          0.00000000	
          1.33700000	         57.99749223	        570.97610876	         43.14301689	         -0.08764181	          0.00000000	         -0.09953201	         -0.08669596	         -0.23149098	         -0.03999752	         -0.00110527	          0.00000000	         -0.00023384	          0.00000000	          0.39102060	          0.00000000	          0.00000000	          0.01869395	          0.00000000	
          1.33800000	         58.89334019	        572.63687265	         43.31772567	         -0.08754850	          0.00000000	         -0.09950062	         -0.08606425	         -0.33871152	         -0.04873546	         -0.00128424	          0.00000000	         -0.00025742	          0.00000000	          0.38886072	          0.00000000	          0.00000000	          0.01951358	          0.00000000	
          1.33900000	         59.79095119	        574.27698419	         43.48484031	         -0.08745330	          0.00000000	         -0.09946665	         -0.08501840	         -0.45449669	         -0.05808411	         -0.00147454	          0.00000000	         -0.00028213	          0.00000000	          0.38654405	          0.00000000	          0.00000000	          0.02032879	          0.00000000	
